<?xml version="1.0" encoding="utf-8"?>
<!-- Generator: Adobe Illustrator 27.5.0, SVG Export Plug-In . SVG Version: 6.00 Build 0)  -->
<svg version="1.1" xmlns="http://www.w3.org/2000/svg" xmlns:xlink="http://www.w3.org/1999/xlink" x="0px" y="0px"
	 viewBox="0 0 750 500" style="enable-background:new 0 0 750 500;" xml:space="preserve">
<g id="BACKGROUND">
	<rect style="fill:#FFFFFF;" width="750" height="500"/>
</g>
<g id="OBJECTS">
	<g id="Layer_6">
		<g>
			<g>
				<path style="fill:none;stroke:#CDDBFC;stroke-miterlimit:10;" d="M127.552,161.758c0,1.231-0.998,2.228-2.228,2.228
					c-1.231,0-2.228-0.998-2.228-2.228c0-1.231,0.998-2.228,2.228-2.228C126.555,159.53,127.552,160.527,127.552,161.758z"/>
				<path style="fill:none;stroke:#CDDBFC;stroke-miterlimit:10;" d="M567.404,195.329c0,1.231-0.998,2.228-2.228,2.228
					c-1.231,0-2.228-0.998-2.228-2.228c0-1.231,0.998-2.228,2.228-2.228C566.407,193.101,567.404,194.099,567.404,195.329z"/>
				<path style="fill:none;stroke:#CDDBFC;stroke-miterlimit:10;" d="M634.676,223.772c0,1.231-0.998,2.228-2.228,2.228
					c-1.231,0-2.228-0.998-2.228-2.228c0-1.231,0.998-2.228,2.228-2.228C633.678,221.544,634.676,222.542,634.676,223.772z"/>
				<path style="fill:none;stroke:#CDDBFC;stroke-miterlimit:10;" d="M364.044,101.704c0,1.231-0.998,2.228-2.228,2.228
					c-1.231,0-2.228-0.998-2.228-2.228c0-1.231,0.998-2.228,2.228-2.228C363.046,99.476,364.044,100.473,364.044,101.704z"/>
				<g>
					<line style="fill:none;stroke:#CDDBFC;stroke-miterlimit:10;" x1="416.891" y1="194.666" x2="416.891" y2="201.566"/>
					<line style="fill:none;stroke:#CDDBFC;stroke-miterlimit:10;" x1="420.341" y1="198.116" x2="413.441" y2="198.116"/>
				</g>
				<g>
					<line style="fill:none;stroke:#CDDBFC;stroke-miterlimit:10;" x1="671.93" y1="250.715" x2="671.93" y2="257.616"/>
					<line style="fill:none;stroke:#CDDBFC;stroke-miterlimit:10;" x1="675.38" y1="254.165" x2="668.48" y2="254.165"/>
				</g>
				<g>
					<line style="fill:none;stroke:#CDDBFC;stroke-miterlimit:10;" x1="615.12" y1="119.39" x2="615.12" y2="126.29"/>
					<line style="fill:none;stroke:#CDDBFC;stroke-miterlimit:10;" x1="618.57" y1="122.84" x2="611.67" y2="122.84"/>
				</g>
				<g>
					<line style="fill:none;stroke:#CDDBFC;stroke-miterlimit:10;" x1="149.954" y1="109.286" x2="149.954" y2="116.186"/>
					<line style="fill:none;stroke:#CDDBFC;stroke-miterlimit:10;" x1="153.405" y1="112.736" x2="146.504" y2="112.736"/>
				</g>
				<g>
					<line style="fill:none;stroke:#CDDBFC;stroke-miterlimit:10;" x1="125.324" y1="256.163" x2="125.324" y2="263.064"/>
					<line style="fill:none;stroke:#CDDBFC;stroke-miterlimit:10;" x1="128.774" y1="259.614" x2="121.874" y2="259.614"/>
				</g>
				<g>
					<line style="fill:none;stroke:#CDDBFC;stroke-miterlimit:10;" x1="325.758" y1="71.091" x2="325.758" y2="77.992"/>
					<line style="fill:none;stroke:#CDDBFC;stroke-miterlimit:10;" x1="329.208" y1="74.542" x2="322.307" y2="74.542"/>
				</g>
				<path style="fill:none;stroke:#CDDBFC;stroke-miterlimit:10;" d="M131.821,220.438H62.77c-1.206,0-2.184-0.978-2.184-2.184l0,0
					c0-1.206,0.978-2.185,2.184-2.185h69.05c1.206,0,2.184,0.978,2.184,2.185l0,0C134.005,219.46,133.027,220.438,131.821,220.438z"
					/>
				<path style="fill:none;stroke:#CDDBFC;stroke-miterlimit:10;" d="M662.717,156.371h-69.051c-1.206,0-2.184-0.978-2.184-2.184
					l0,0c0-1.206,0.978-2.184,2.184-2.184h69.051c1.206,0,2.184,0.978,2.184,2.184l0,0
					C664.902,155.393,663.924,156.371,662.717,156.371z"/>
				<path style="fill:#CDDBFC;" d="M682.473,168.074h-25.525c-0.603,0-1.092-0.489-1.092-1.092l0,0c0-0.603,0.489-1.092,1.092-1.092
					h25.525c0.603,0,1.092,0.489,1.092,1.092l0,0C683.565,167.585,683.076,168.074,682.473,168.074z"/>
				<path style="fill:#CDDBFC;" d="M275.948,160.038h-25.525c-0.603,0-1.092-0.489-1.092-1.092l0,0c0-0.603,0.489-1.092,1.092-1.092
					h25.525c0.603,0,1.092,0.489,1.092,1.092l0,0C277.041,159.549,276.552,160.038,275.948,160.038z"/>
				<path style="fill:#CDDBFC;" d="M102.243,203.179H82.717c-0.603,0-1.092-0.489-1.092-1.092l0,0c0-0.603,0.489-1.092,1.092-1.092
					h19.525c0.603,0,1.092,0.489,1.092,1.092l0,0C103.335,202.69,102.846,203.179,102.243,203.179z"/>
				<g>
					<g>
						<path style="fill:#FFFFFF;stroke:#CDDBFC;stroke-miterlimit:10;" d="M334.699,163.852c0-8.104,6.569-14.673,14.673-14.673
							c8.104,0,14.673,6.569,14.673,14.673c0,3.23-1.045,6.216-2.813,8.64h0c-2.094,3.156-7.536,6.719-7.536,8.854v2.439
							c0,0.487-0.395,0.882-0.882,0.882h-2.358h-2.167h-2.358c-0.487,0-0.881-0.395-0.881-0.882v-2.439
							c0-2.135-5.442-5.698-7.536-8.854l0,0C335.743,170.068,334.699,167.082,334.699,163.852z"/>
					</g>
					<g>
						<path style="fill:#FFFFFF;stroke:#CDDBFC;stroke-miterlimit:10;" d="M351.037,184.423c-0.017-0.368-0.28-6.258,0.192-11.419
							c-0.578,0.068-1.197,0.105-1.858,0.105c-0.661,0-1.28-0.036-1.858-0.105c0.472,5.162,0.209,11.052,0.192,11.419l-0.259-0.012
							c0.004-0.091,0.276-6.183-0.206-11.442c-4.352-0.605-6.3-3.071-6.649-5.397c-0.204-1.36,0.26-2.713,1.104-3.218
							c0.512-0.306,1.131-0.368,1.79-0.179c1.036,0.297,2.021,1.19,2.635,2.389c0.708,1.384,1.127,3.682,1.369,6.177
							c0.584,0.072,1.21,0.11,1.883,0.11s1.299-0.038,1.883-0.11c0.241-2.495,0.66-4.793,1.369-6.177
							c0.613-1.199,1.598-2.092,2.635-2.389c0.659-0.189,1.278-0.127,1.79,0.179c0.844,0.505,1.309,1.858,1.104,3.218
							c-0.35,2.327-2.298,4.792-6.65,5.397c-0.482,5.26-0.21,11.352-0.206,11.442L351.037,184.423z M355.983,164.326
							c-0.21,0-0.429,0.032-0.654,0.097c-0.969,0.278-1.894,1.122-2.476,2.258c-0.681,1.331-1.088,3.573-1.326,6.022
							c4.169-0.601,6.035-2.951,6.368-5.17c0.186-1.24-0.235-2.512-0.981-2.957C356.637,164.41,356.322,164.326,355.983,164.326z
							 M342.759,164.326c-0.339,0-0.654,0.084-0.931,0.249c-0.746,0.446-1.167,1.717-0.981,2.957
							c0.333,2.219,2.199,4.569,6.368,5.17c-0.238-2.45-0.645-4.691-1.326-6.022c-0.581-1.136-1.507-1.98-2.476-2.258
							C343.189,164.358,342.969,164.326,342.759,164.326z"/>
					</g>
					<g>
						<path style="fill:#FFFFFF;stroke:#CDDBFC;stroke-miterlimit:10;" d="M354.041,182.387h-9.339v4.451
							c0,0.727,0.207,1.439,0.596,2.052l0,0c0.736,1.16,2.015,1.863,3.389,1.863h1.369c1.374,0,2.652-0.703,3.389-1.863l0,0
							c0.389-0.614,0.596-1.325,0.596-2.052V182.387z"/>
					</g>
					<g>
						<line style="fill:#FFFFFF;stroke:#CDDBFC;stroke-miterlimit:10;" x1="349.292" y1="137.52" x2="349.292" y2="144.84"/>
						<line style="fill:#FFFFFF;stroke:#CDDBFC;stroke-miterlimit:10;" x1="362.964" y1="142.043" x2="357.789" y2="147.219"/>
						<line style="fill:#FFFFFF;stroke:#CDDBFC;stroke-miterlimit:10;" x1="335.778" y1="142.426" x2="340.954" y2="147.601"/>
					</g>
				</g>
				<g>
					<path style="fill:#FFFFFF;stroke:#CDDBFC;stroke-miterlimit:10;" d="M448.212,183.293h17.427c7.168,0,12.98,5.811,12.98,12.98
						l0,0c0,5.309-3.191,9.867-7.757,11.878l1.742,4.789l-6.388-3.716c-0.193,0.008-0.382,0.029-0.577,0.029h-17.427
						c-7.168,0-12.98-5.811-12.98-12.98l0,0C435.232,189.104,441.043,183.293,448.212,183.293z"/>
					<g>
						<polyline style="fill:none;stroke:#CDDBFC;stroke-miterlimit:10;" points="445.524,201.811 454.323,194.448 459.071,198.555 
							468.031,189.646 						"/>
						<polyline style="fill:none;stroke:#CDDBFC;stroke-miterlimit:10;" points="463.557,189.646 468.031,189.646 468.031,194.12 
													"/>
					</g>
				</g>
				<g>
					<path style="fill:#FFFFFF;stroke:#CDDBFC;stroke-miterlimit:10;" d="M277.705,101.704h-37.039
						c-9.934,0-17.988,8.054-17.988,17.988v0c0,7.358,4.423,13.674,10.75,16.461l-2.414,6.638l8.853-5.151
						c0.267,0.012,0.529,0.04,0.799,0.04h37.039c9.935,0,17.988-8.054,17.988-17.988v0
						C295.693,109.757,287.64,101.704,277.705,101.704z"/>
					<g id="XMLID_2_">
						<circle id="XMLID_4_" style="fill:#FFFFFF;stroke:#CDDBFC;stroke-miterlimit:10;" cx="245.331" cy="119.566" r="10.065"/>
						<circle id="XMLID_3_" style="fill:#F0F2FC;" cx="245.331" cy="119.566" r="6.488"/>
						<path style="fill:#E1E5F9;" d="M241.071,124.452c1.14,0.995,2.628,1.603,4.26,1.603c3.583,0,6.488-2.905,6.488-6.488
							c0-3.583-2.905-6.488-6.488-6.488v6.488L241.071,124.452z"/>
					</g>
					<g>
						<line style="fill:none;stroke:#CDDBFC;stroke-miterlimit:10;" x1="262.56" y1="109.746" x2="284.074" y2="109.746"/>
						<line style="fill:none;stroke:#CDDBFC;stroke-miterlimit:10;" x1="262.56" y1="116.293" x2="284.074" y2="116.293"/>
						<line style="fill:none;stroke:#CDDBFC;stroke-miterlimit:10;" x1="262.56" y1="122.84" x2="284.074" y2="122.84"/>
						<line style="fill:none;stroke:#CDDBFC;stroke-miterlimit:10;" x1="262.56" y1="129.387" x2="272.167" y2="129.387"/>
					</g>
				</g>
				<g>
					<rect x="401.72" y="56.318" style="fill:#FFFFFF;stroke:#CDDBFC;stroke-miterlimit:10;" width="176.484" height="116.647"/>
					<g>
						<linearGradient id="SVGID_1_" gradientUnits="userSpaceOnUse" x1="474.7675" y1="139.3539" x2="474.7675" y2="88.5667">
							<stop  offset="0" style="stop-color:#F7F7FF;stop-opacity:0.4"/>
							<stop  offset="1" style="stop-color:#D1E4F2;stop-opacity:0.5"/>
						</linearGradient>
						<path style="fill:url(#SVGID_1_);" d="M520.877,88.567c-9.71,0-6.022,44.361-15.37,44.361c-7.346,0-7.57-27.405-15.37-27.405
							s-7.264,11.051-15.37,11.051c-8.105,0-8.063-16.626-14.908-16.626c-6.385,0-8.596,26.027-15.831,26.027
							c-7.235,0-9.179-9.284-15.37-8.532c-11.174,1.357-15.37,21.91-15.37,21.91h122.959v-30.553
							C527.274,108.801,527.869,88.567,520.877,88.567z"/>
						<path style="fill:none;stroke:#CDDBFC;stroke-width:0.5;stroke-miterlimit:10;" d="M413.288,139.354
							c0,0,4.196-20.553,15.37-21.91c6.191-0.752,8.134,8.532,15.37,8.532c7.235,0,9.446-26.027,15.831-26.027
							c6.845,0,6.803,16.625,14.908,16.625c8.105,0,7.57-11.051,15.37-11.051s8.024,27.405,15.37,27.405
							c9.348,0,5.66-44.361,15.37-44.361c6.991,0,6.397,20.234,15.37,20.234"/>
						<g>
							<g>
								<polyline style="fill:none;stroke:#CDDBFC;stroke-width:0.5;stroke-miterlimit:10;" points="413.288,79.879 
									413.288,139.354 544.056,139.354 								"/>
								
									<line style="fill:none;stroke:#CDDBFC;stroke-width:0.5;stroke-miterlimit:10;" x1="428.658" y1="79.879" x2="428.658" y2="139.354"/>
								
									<line style="fill:none;stroke:#CDDBFC;stroke-width:0.5;stroke-miterlimit:10;" x1="444.028" y1="79.879" x2="444.028" y2="139.354"/>
								
									<line style="fill:none;stroke:#CDDBFC;stroke-width:0.5;stroke-miterlimit:10;" x1="459.398" y1="79.879" x2="459.398" y2="139.354"/>
								
									<line style="fill:none;stroke:#CDDBFC;stroke-width:0.5;stroke-miterlimit:10;" x1="474.768" y1="79.879" x2="474.768" y2="139.354"/>
								
									<line style="fill:none;stroke:#CDDBFC;stroke-width:0.5;stroke-miterlimit:10;" x1="490.137" y1="79.879" x2="490.137" y2="139.354"/>
								
									<line style="fill:none;stroke:#CDDBFC;stroke-width:0.5;stroke-miterlimit:10;" x1="505.507" y1="79.879" x2="505.507" y2="139.354"/>
								
									<line style="fill:none;stroke:#CDDBFC;stroke-width:0.5;stroke-miterlimit:10;" x1="520.877" y1="79.879" x2="520.877" y2="139.354"/>
								
									<line style="fill:none;stroke:#CDDBFC;stroke-width:0.5;stroke-miterlimit:10;" x1="536.247" y1="79.879" x2="536.247" y2="139.354"/>
							</g>
						</g>
						<g>
							<path style="fill:#CDDBFC;" d="M430.025,117.444c0,0.755-0.612,1.367-1.367,1.367c-0.755,0-1.367-0.612-1.367-1.367
								c0-0.755,0.612-1.367,1.367-1.367C429.413,116.076,430.025,116.689,430.025,117.444z"/>
							<polyline style="fill:none;stroke:#CDDBFC;stroke-width:0.5;stroke-miterlimit:10;" points="428.658,117.444 
								432.265,109.145 437.751,109.145 							"/>
							<rect x="432.265" y="102.922" style="fill:#EEEDF2;" width="7.975" height="0.81"/>
							<rect x="432.265" y="104.667" style="fill:#EEEDF2;" width="7.975" height="0.81"/>
							<rect x="432.265" y="106.412" style="fill:#EEEDF2;" width="6.396" height="0.81"/>
						</g>
						<g>
							<path style="fill:#CDDBFC;" d="M491.505,105.997c0,0.755-0.612,1.367-1.367,1.367s-1.367-0.612-1.367-1.367
								c0-0.755,0.612-1.367,1.367-1.367S491.505,105.242,491.505,105.997z"/>
							<polyline style="fill:none;stroke:#CDDBFC;stroke-width:0.5;stroke-miterlimit:10;" points="490.137,105.997 493.744,97.699 
								499.231,97.699 							"/>
							<rect x="493.744" y="91.476" style="fill:#EEEDF2;" width="7.975" height="0.81"/>
							<rect x="493.744" y="93.221" style="fill:#EEEDF2;" width="7.975" height="0.81"/>
							<rect x="493.744" y="94.966" style="fill:#EEEDF2;" width="6.396" height="0.81"/>
						</g>
						<g>
							<path style="fill:#CDDBFC;" d="M522.245,88.567c0,0.755-0.612,1.367-1.367,1.367s-1.367-0.612-1.367-1.367
								c0-0.755,0.612-1.367,1.367-1.367S522.245,87.812,522.245,88.567z"/>
							<polyline style="fill:none;stroke:#CDDBFC;stroke-width:0.5;stroke-miterlimit:10;" points="520.877,88.567 524.484,80.268 
								529.971,80.268 							"/>
							<rect x="524.484" y="74.045" style="fill:#EEEDF2;" width="7.975" height="0.81"/>
							<rect x="524.484" y="75.79" style="fill:#EEEDF2;" width="7.975" height="0.81"/>
							<rect x="524.484" y="77.535" style="fill:#EEEDF2;" width="6.396" height="0.81"/>
						</g>
					</g>
					<g>
						
							<rect x="413.288" y="147.265" transform="matrix(-1 -1.224647e-16 1.224647e-16 -1 887.6286 312.0316)" style="fill:#E8EBF9;" width="61.053" height="17.501"/>
						<g>
							
								<linearGradient id="SVGID_00000059270288403580393620000017786038721135496635_" gradientUnits="userSpaceOnUse" x1="554.4932" y1="412.4551" x2="590.7783" y2="412.4551" gradientTransform="matrix(-1 0 0 -1 1007.6694 572.3721)">
								<stop  offset="0" style="stop-color:#FFFFFF;stop-opacity:0.7"/>
								<stop  offset="1" style="stop-color:#FFFFFF"/>
							</linearGradient>
							
								<line style="fill:none;stroke:url(#SVGID_00000059270288403580393620000017786038721135496635_);stroke-miterlimit:10;" x1="453.176" y1="159.917" x2="416.891" y2="159.917"/>
							
								<linearGradient id="SVGID_00000101099290869963369100000000370371217670234242_" gradientUnits="userSpaceOnUse" x1="536.9318" y1="416.3563" x2="590.7784" y2="416.3563" gradientTransform="matrix(-1 0 0 -1 1007.6694 572.3721)">
								<stop  offset="0" style="stop-color:#FFFFFF;stop-opacity:0.7"/>
								<stop  offset="1" style="stop-color:#FFFFFF"/>
							</linearGradient>
							
								<line style="fill:none;stroke:url(#SVGID_00000101099290869963369100000000370371217670234242_);stroke-miterlimit:10;" x1="470.738" y1="156.016" x2="416.891" y2="156.016"/>
							
								<linearGradient id="SVGID_00000039818832054929300080000003647643193245400237_" gradientUnits="userSpaceOnUse" x1="536.9318" y1="420.2574" x2="590.7784" y2="420.2574" gradientTransform="matrix(-1 0 0 -1 1007.6694 572.3721)">
								<stop  offset="0" style="stop-color:#FFFFFF;stop-opacity:0.7"/>
								<stop  offset="1" style="stop-color:#FFFFFF"/>
							</linearGradient>
							
								<line style="fill:none;stroke:url(#SVGID_00000039818832054929300080000003647643193245400237_);stroke-miterlimit:10;" x1="470.738" y1="152.115" x2="416.891" y2="152.115"/>
						</g>
					</g>
					<path style="fill:#E1E5F9;" d="M449.008,64.065h81.908c0.926,0,1.678,0.751,1.678,1.678l0,0c0,0.927-0.751,1.678-1.678,1.678
						h-81.908c-0.926,0-1.677-0.751-1.677-1.678l0,0C447.331,64.816,448.082,64.065,449.008,64.065z"/>
					<g>
						
							<linearGradient id="SVGID_00000054949152813036587980000008184509548178504356_" gradientUnits="userSpaceOnUse" x1="450.3761" y1="490.9276" x2="458.4371" y2="490.9276" gradientTransform="matrix(-1 0 0 -1 1007.6694 572.3721)">
							<stop  offset="0" style="stop-color:#F5F5FF;stop-opacity:0.6"/>
							<stop  offset="1" style="stop-color:#E4E4F2;stop-opacity:0.5"/>
						</linearGradient>
						<polygon style="fill:url(#SVGID_00000054949152813036587980000008184509548178504356_);" points="549.232,79.309 
							557.293,79.309 557.293,83.58 549.232,83.58 						"/>
						<g>
							<rect x="560.016" y="79.219" style="fill:#EEEDF2;" width="8.088" height="0.821"/>
							<rect x="560.016" y="80.989" style="fill:#EEEDF2;" width="8.088" height="0.821"/>
							<rect x="560.016" y="82.759" style="fill:#EEEDF2;" width="6.486" height="0.821"/>
						</g>
					</g>
					<g>
						
							<linearGradient id="SVGID_00000072972980185770210610000009176708343648310456_" gradientUnits="userSpaceOnUse" x1="450.3761" y1="481.4449" x2="458.4371" y2="481.4449" gradientTransform="matrix(-1 0 0 -1 1007.6694 572.3721)">
							<stop  offset="0" style="stop-color:#F5F5FF;stop-opacity:0.6"/>
							<stop  offset="1" style="stop-color:#E4E4F2;stop-opacity:0.5"/>
						</linearGradient>
						<polygon style="fill:url(#SVGID_00000072972980185770210610000009176708343648310456_);" points="549.232,88.792 
							557.293,88.792 557.293,93.063 549.232,93.063 						"/>
						<g>
							<rect x="560.016" y="88.702" style="fill:#EEEDF2;" width="8.088" height="0.821"/>
							<rect x="560.016" y="90.472" style="fill:#EEEDF2;" width="8.088" height="0.821"/>
							<rect x="560.016" y="92.241" style="fill:#EEEDF2;" width="6.486" height="0.821"/>
						</g>
					</g>
					
						<linearGradient id="SVGID_00000147899960960453870690000013324046996357370771_" gradientUnits="userSpaceOnUse" x1="549.2323" y1="124.7946" x2="573.0594" y2="124.7946">
						<stop  offset="0" style="stop-color:#E7E9F0"/>
						<stop  offset="1" style="stop-color:#F5F5FF"/>
					</linearGradient>
					<path style="fill:none;stroke:url(#SVGID_00000147899960960453870690000013324046996357370771_);stroke-miterlimit:10;" d="
						M549.232,110.235h23.827 M549.232,113.144h23.827 M560.016,116.053h-10.784 M573.059,116.053h-10.784 M573.059,118.962h-23.827
						 M549.232,121.871h23.827 M566.503,124.78h-17.27 M567.665,124.78h5.394 M549.232,127.688h23.827 M573.059,130.597h-23.827
						 M555.189,133.506h-5.957 M557.293,133.506h15.766 M549.232,136.415h23.827 M562.678,139.354h-13.446 M563.841,139.354h9.219"
						/>
					<g>
						
							<linearGradient id="SVGID_00000018939231953344498040000006253185828928082364_" gradientUnits="userSpaceOnUse" x1="450.3761" y1="471.962" x2="458.4371" y2="471.962" gradientTransform="matrix(-1 0 0 -1 1007.6694 572.3721)">
							<stop  offset="0" style="stop-color:#F5F5FF;stop-opacity:0.6"/>
							<stop  offset="1" style="stop-color:#E4E4F2;stop-opacity:0.5"/>
						</linearGradient>
						<polygon style="fill:url(#SVGID_00000018939231953344498040000006253185828928082364_);" points="549.232,98.275 
							557.293,98.275 557.293,102.546 549.232,102.546 						"/>
						<g>
							<rect x="560.016" y="98.185" style="fill:#EEEDF2;" width="8.088" height="0.821"/>
							<rect x="560.016" y="99.955" style="fill:#EEEDF2;" width="8.088" height="0.821"/>
							<rect x="560.016" y="101.724" style="fill:#EEEDF2;" width="6.486" height="0.821"/>
						</g>
					</g>
					<g id="XMLID_1_">
						
							<ellipse id="XMLID_54_" transform="matrix(0.9247 -0.3806 0.3806 0.9247 -22.2142 199.8266)" style="fill:#FFFFFF;stroke:#CDDBFC;stroke-miterlimit:10;" cx="494.115" cy="156.077" rx="8.812" ry="8.812"/>
						<path id="XMLID_41_" style="fill:#F0F2FC;" d="M499.796,156.077c0,3.137-2.543,5.681-5.681,5.681s-5.681-2.543-5.681-5.681
							c0-3.137,2.543-5.681,5.681-5.681S499.796,152.94,499.796,156.077z"/>
						<path id="XMLID_40_" style="fill:#E1E5F9;" d="M499.042,158.905c0.479-0.833,0.755-1.798,0.755-2.828
							c0-3.137-2.543-5.681-5.681-5.681v5.681L499.042,158.905z"/>
					</g>
					<g id="XMLID_36_">
						
							<ellipse id="XMLID_38_" transform="matrix(0.2306 -0.973 0.973 0.2306 247.502 625.1748)" style="fill:#FFFFFF;stroke:#CDDBFC;stroke-miterlimit:10;" cx="519.085" cy="156.077" rx="8.812" ry="8.812"/>
						<path id="XMLID_37_" style="fill:#F0F2FC;" d="M524.766,156.077c0,3.137-2.543,5.681-5.681,5.681
							c-3.138,0-5.681-2.543-5.681-5.681c0-3.137,2.543-5.681,5.681-5.681C522.223,150.397,524.766,152.94,524.766,156.077z"/>
						<path style="fill:#E1E5F9;" d="M515.355,160.355c0.998,0.871,2.301,1.403,3.73,1.403c3.137,0,5.681-2.543,5.681-5.681
							c0-3.137-2.543-5.681-5.681-5.681v5.681L515.355,160.355z"/>
					</g>
					<g id="XMLID_5_">
						
							<ellipse id="XMLID_35_" transform="matrix(0.9247 -0.3806 0.3806 0.9247 -18.4549 218.8357)" style="fill:#FFFFFF;stroke:#CDDBFC;stroke-miterlimit:10;" cx="544.056" cy="156.077" rx="8.812" ry="8.812"/>
						<path id="XMLID_33_" style="fill:#F0F2FC;" d="M549.736,156.077c0,3.137-2.543,5.681-5.681,5.681
							c-3.137,0-5.681-2.543-5.681-5.681c0-3.137,2.543-5.681,5.681-5.681C547.193,150.397,549.736,152.94,549.736,156.077z"/>
						<path style="fill:#E1E5F9;" d="M548.22,152.214c-1.038-1.118-2.519-1.817-4.165-1.817v5.681L548.22,152.214z"/>
					</g>
				</g>
			</g>
			<line style="fill:none;stroke:#93A5F9;stroke-miterlimit:10;" x1="74.94" y1="445.499" x2="675.06" y2="445.499"/>
			<g>
				<g>
					<g>
						<g>
							<g>
								<path style="fill:#FFDAC5;" d="M197.375,397.243l0.581,33.13l-0.291,10.867l42.608-0.217
									c1.04-0.005,1.879-0.853,1.874-1.894l0,0c-0.004-0.78-0.488-1.476-1.216-1.752l-18.376-8.45l1.098-34.529"/>
								<path style="fill:#E2405B;" d="M244.012,440.565c-0.435-1.365-1.235-2.897-2.041-3.245l-19.484-8.392
									c-10.74,4.353-24.642,1.026-24.642,1.026l-2.48,14.67c0.002,0.486,0.398,0.877,0.884,0.875h47.437
									C244.64,445.494,244.025,440.608,244.012,440.565z"/>
								<path style="fill:none;stroke:#AA3047;stroke-width:0.75;stroke-miterlimit:10;" d="M226.703,429.768
									c-1.092,1.423-2.015,2.975-2.747,4.613"/>
								<path style="fill:none;stroke:#AA3047;stroke-width:0.75;stroke-miterlimit:10;" d="M229.157,431.235
									c-1.131,1.566-1.583,2.47-2.258,3.922"/>
								<path style="fill:none;stroke:#AA3047;stroke-width:0.75;stroke-miterlimit:10;" d="M231.23,432.306
									c-0.768,1.032-1.521,2.459-2.117,3.599"/>
							</g>
							
								<line style="fill:none;stroke:#AA3047;stroke-width:0.75;stroke-miterlimit:10;" x1="195.615" y1="442.332" x2="244.212" y2="442.083"/>
							<path style="fill:none;stroke:#AA3047;stroke-width:0.75;stroke-miterlimit:10;" d="M196.965,435.157
								c0,0,11.416,0.232,12.398,7.11"/>
							<path style="fill:none;stroke:#AA3047;stroke-width:0.75;stroke-miterlimit:10;" d="M237.977,435.6
								c0,0-3.148,4.473-3.768,6.536"/>
						</g>
					</g>
					<path style="fill:#423EAC;" d="M188.332,259.478c0,0-4.104,14.072-0.633,38.477c1.753,15.29,6,125.935,6,125.935h33.924
						c0,0-3.294-117.329-8.862-169.725"/>
					
						<line style="fill:none;stroke:#6E75F4;stroke-width:0.75;stroke-miterlimit:10;" x1="193.581" y1="415.874" x2="227.383" y2="415.874"/>
					<path style="fill:none;stroke:#6E75F4;stroke-width:0.75;stroke-miterlimit:10;" d="M198.09,423.449
						c0,0-2.124-50.489-4.31-77.84"/>
					<g>
						<g>
							<g>
								<path style="fill:#FFDAC5;" d="M160.378,397.243l0.581,33.13l-0.291,10.867l42.608-0.217
									c1.04-0.005,1.879-0.853,1.874-1.894l0,0c-0.004-0.78-0.488-1.476-1.216-1.752l-18.376-8.45l1.098-34.529"/>
								<path style="fill:#FF6675;" d="M207.014,440.565c-0.435-1.365-1.235-2.897-2.041-3.245l-19.484-8.392
									c-10.74,4.353-24.642,1.026-24.642,1.026l-2.48,14.67c0.003,0.486,0.398,0.877,0.884,0.875h47.437
									C207.642,445.494,207.028,440.608,207.014,440.565z"/>
								<path style="fill:none;stroke:#C93F53;stroke-width:0.75;stroke-miterlimit:10;" d="M189.706,429.768
									c-1.092,1.423-2.015,2.975-2.747,4.613"/>
								<path style="fill:none;stroke:#C93F53;stroke-width:0.75;stroke-miterlimit:10;" d="M192.16,431.235
									c-1.131,1.566-1.583,2.47-2.258,3.922"/>
								<path style="fill:none;stroke:#C93F53;stroke-width:0.75;stroke-miterlimit:10;" d="M194.233,432.306
									c-0.768,1.032-1.521,2.459-2.117,3.599"/>
							</g>
							
								<line style="fill:none;stroke:#C93F53;stroke-width:0.75;stroke-miterlimit:10;" x1="158.618" y1="442.332" x2="207.215" y2="442.083"/>
							<path style="fill:none;stroke:#C93F53;stroke-width:0.75;stroke-miterlimit:10;" d="M159.968,435.157
								c0,0,11.416,0.232,12.398,7.11"/>
							<path style="fill:none;stroke:#C93F53;stroke-width:0.75;stroke-miterlimit:10;" d="M200.98,435.6
								c0,0-3.148,4.473-3.768,6.536"/>
						</g>
					</g>
					<path style="fill:#423EAC;" d="M154.335,259.478c0,0-4.104,14.072-0.633,38.477c1.753,15.29,0,125.935,0,125.935h37.924
						c0,0,4.188-125.589,2.828-169.725"/>
					<path style="fill:none;stroke:#6E75F4;stroke-width:0.75;stroke-miterlimit:10;" d="M160.335,259.478
						c0,0-4.104,14.072-0.633,38.477c1.753,15.29,0,125.935,0,125.935"/>
					<path style="fill:none;stroke:#6E75F4;stroke-width:0.75;stroke-miterlimit:10;" d="M192.436,397.596
						c1.143-39.276,2.987-112.003,2.019-143.431"/>
					<path style="fill:none;stroke:#6E75F4;stroke-width:0.75;stroke-miterlimit:10;" d="M158.841,268.292
						c0,0,11.021-1.583,14.676-11.051"/>
					<path style="fill:none;stroke:#6E75F4;stroke-width:0.75;stroke-miterlimit:10;" d="M194.726,273.943
						c0,0,2.719-0.197,3.165-1.044c0.446-0.847,0-16.905,0-16.905"/>
					<path style="fill:none;stroke:#6E75F4;stroke-width:0.75;stroke-miterlimit:10;" d="M209.527,257.241
						c0,0,1.653,11.051,10.56,11.051"/>
					
						<line style="fill:none;stroke:#6E75F4;stroke-width:0.75;stroke-miterlimit:10;" x1="153.821" y1="415.874" x2="191.884" y2="415.874"/>
				</g>
				<g>
					<path style="fill:#93A5F9;" d="M212.031,185.941c5.21,15.089,8.411,56.92,8.74,73.537h-67.028c0,0-3.04-47.358,4.082-72.614
						l19.794-17.558l16.336,0.792L212.031,185.941z"/>
					<path style="fill:#FFDAC5;" d="M145.87,203.172c0,0,0.492,35.923,11.955,35.922c13.081-0.002,44.325-21.008,44.325-21.008
						l3.447,0.118l-0.442-9.305c0,0-2.436-0.898-7.4-0.551c-4.963,0.347-26.837,6.177-26.837,6.177l-0.832-16.049"/>
					<path style="fill:#FFDAC5;" d="M224.287,196.85c0,0,6.839,39.398-5.622,40.313c-20.238,1.487-49.121-12.711-49.121-12.711
						l5.02-7.308l31.033,1.059l-1.086-22.874"/>
					<polyline style="fill:none;stroke:#F2A486;stroke-width:0.75;stroke-linejoin:round;stroke-miterlimit:10;" points="
						182.702,229.592 202.149,218.086 205.597,218.203 204.993,205.492 					"/>
					<path style="fill:#93A5F9;" d="M177.618,169.306c0,0-22.041-1.399-29.557,12.339c-6.273,11.465-2.056,31.089-2.056,31.089
						l25.714-3.631l-0.07-20.199"/>
					<path style="fill:#93A5F9;" d="M193.954,170.098c0,0,15.021-0.895,23.056,7.4c8.036,8.295,8.795,27.994,8.795,27.994h-23.656
						l-1.31-17.711"/>
					
						<line style="fill:none;stroke:#1D4893;stroke-width:0.75;stroke-miterlimit:10;" x1="171.661" y1="205.242" x2="145.291" y2="208.385"/>
					
						<line style="fill:none;stroke:#1D4893;stroke-width:0.75;stroke-miterlimit:10;" x1="203.781" y1="201.589" x2="225.458" y2="201.307"/>
					
						<line style="fill:none;stroke:#1D4893;stroke-width:0.75;stroke-miterlimit:10;" x1="171.719" y1="209.102" x2="171.661" y2="192.17"/>
					
						<line style="fill:none;stroke:#1D4893;stroke-width:0.75;stroke-miterlimit:10;" x1="202.472" y1="191" x2="204.264" y2="205.492"/>
				</g>
				<g>
					<path style="fill:#FFDAC5;" d="M201.888,139.98c0,0,1.669,16.714-3.426,21.941c-2.649,2.717-9.235,2.082-12.323-0.67
						c-2.291-2.043-5.496-14.041-4.067-16.214C187.531,136.731,201.888,139.98,201.888,139.98z"/>
					<path style="fill:#FFDAC5;" d="M178.45,158.946l-1.831,10.36c0,0,9.395,7.676,17.336,0.792l0.673-10.918l-8.084-4.238
						L178.45,158.946z"/>
					<g>
						<g>
							<path style="fill:#282872;" d="M203.635,139.757c-0.926-2.172-2.764-3.787-7.033-4.22
								c-8.353-5.402-18.621-0.513-20.087,8.884c-0.677,4.338-0.277,8.376,1.073,12.314c0.46,1.341,0.861,2.211,0.861,2.211
								s4.705-0.168,5.13-1.116c0.906-2.023,0.162-4.324,0.565-6.448l0.124-0.2c0.139-0.4,0.339-0.792,0.628-1.173
								c0.56-0.74,1.227-1.409,1.655-2.232c0.303-0.581,0.479-1.227,0.824-1.784c0.619-0.999,1.79-1.63,2.964-1.598
								c0.897,0.025,1.791,0.405,2.669,0.219c0.816-0.173,1.459-0.794,2.23-1.109c3.234,0.204,8.581,3.441,8.581,3.441
								C204.944,144.873,204.561,141.928,203.635,139.757z M201.174,139.55C201.23,139.491,201.287,139.57,201.174,139.55
								L201.174,139.55z"/>
						</g>
					</g>
					<path style="fill:none;stroke:#F2A486;stroke-width:0.75;stroke-linejoin:round;stroke-miterlimit:10;" d="M194.218,164.036
						c-5.187-0.632-8.802-2.919-8.802-2.919"/>
					<path style="fill:none;stroke:#F2A486;stroke-width:0.75;stroke-linejoin:round;stroke-miterlimit:10;" d="M196.463,150.18
						c0,0,1.579,4.268,1.118,5.252c-0.462,0.984-2.953,0.55-2.953,0.55"/>
					<path style="fill:#FFFFFF;" d="M197.19,157.616l-6.934-0.577c0,0,0.5,3.759,4.328,3.814
						C197.316,160.893,197.19,157.616,197.19,157.616z"/>
					<g>
						<g>
							<path style="fill:#00276F;" d="M198.773,149.761c-0.018,0.308-0.02,0.619-0.005,0.928c0.025,0.505,0.814,0.508,0.789,0
								c-0.017-0.341-0.055-0.682-0.109-1.019C199.384,149.268,198.795,149.395,198.773,149.761L198.773,149.761z"/>
						</g>
					</g>
					
						<path style="fill:none;stroke:#00276F;stroke-width:0.5;stroke-linecap:round;stroke-linejoin:round;stroke-miterlimit:10;" d="
						M198.249,147.84c0,0,1.346-1.155,2.59,0.271"/>
					<g>
						<g>
							<path style="fill:#00276F;" d="M191.666,149.781c-0.036,0.308-0.055,0.619-0.058,0.929c-0.004,0.508,0.785,0.508,0.789,0
								c0.003-0.31-0.012-0.621-0.044-0.929C192.308,149.337,191.718,149.342,191.666,149.781L191.666,149.781z"/>
						</g>
					</g>
					
						<path style="fill:none;stroke:#00276F;stroke-width:0.5;stroke-linecap:round;stroke-linejoin:round;stroke-miterlimit:10;" d="
						M193.335,147.225c0,0-1.517-0.933-3.663,0.624"/>
					<path style="fill:#FFDAC5;" d="M185.002,152.522c-1.356-2.53-2.784-2.349-3.72-1.186c-1.249,1.551,0.238,5.325,1.083,6.049
						c1.713,1.467,3.263,1.546,3.652-0.08"/>
				</g>
			</g>
			<g>
				<g>
					<line style="fill:none;stroke:#3D4FB7;stroke-miterlimit:10;" x1="521.948" y1="354.299" x2="539.538" y2="445.499"/>
					<line style="fill:none;stroke:#3D4FB7;stroke-miterlimit:10;" x1="484.179" y1="354.299" x2="466.588" y2="445.499"/>
					<line style="fill:none;stroke:#3D4FB7;stroke-miterlimit:10;" x1="503.992" y1="354.299" x2="508.829" y2="445.499"/>
					<path style="fill:#E8EEFE;" d="M508.776,215.802c88.197,0,65.455,140.327,27.665,140.327s-86.359,0-86.359,0
						c-11.728,0-15.12-14.809-2.928-14.809c12.192,0,21.642,0,21.642,0S444.418,215.802,508.776,215.802z"/>
					<path style="fill:#CDDBFC;" d="M527.555,344.305c-37.79,0-86.359,0-86.359,0c-0.289,0-0.569-0.014-0.849-0.03
						c1.105-1.735,3.313-2.953,6.807-2.953c12.192,0,21.642,0,21.642,0s-21.396-110.174,28.83-124.079
						c0.746-0.032,1.492-0.063,2.263-0.063C588.087,217.178,565.345,344.305,527.555,344.305z"/>
				</g>
				<g>
					<g>
						<polyline style="fill:#FFDAC5;" points="439.297,362.146 445.201,426.325 465.131,424.121 463.503,359.987 						"/>
						<g>
							<path style="fill:#FFDAC5;" d="M444.941,423.235l-15.951,16.659c0,0,37.734-7.02,38.626-8.33
								c0.892-1.311-3.003-8.426-3.003-8.426l-15.367-3.161L444.941,423.235z"/>
							<path style="fill:#212237;" d="M462.217,432.47l4.109-5.883l-1.195-2.465l-6.323,8.996l-3.719,0.707l-17.074-3.653
								l-13.77,11.918c-1.453,1.336-0.245,3.74,1.694,3.371l23.071-4.368l5.315-5.385l1.733-0.329l0.802,4.223l12.452-2.365
								l-1.121-5.901L462.217,432.47z"/>
						</g>
					</g>
					<g>
						<polyline style="fill:#FFDAC5;" points="479.493,361.03 494.114,423.8 513.556,418.892 503.177,355.583 						"/>
						<g>
							<path style="fill:#FFDAC5;" d="M493.434,420.774l-13.524,18.683c0,0,36.42-12.112,37.125-13.532
								c0.705-1.421-4.127-7.936-4.127-7.936l-15.655-1.031L493.434,420.774z"/>
							<path style="fill:#212237;" d="M511.811,427.56l3.266-6.39l-1.521-2.279l-5.034,9.776l-3.587,1.208l-17.413-1.285
								l-12.011,13.689c-1.257,1.522,0.268,3.738,2.139,3.108l22.257-7.48l4.529-6.061l1.671-0.563l1.371,4.073l12.012-4.045
								l-1.917-5.692L511.811,427.56z"/>
						</g>
					</g>
					<g>
						<path style="fill:#FFDAC5;" d="M492.314,259.614c0,0-13.048,23.768-24.467,20.795c-11.419-2.973-26.656-40.895-26.656-40.895
							l13.365-5.838c0,0,13.112,19.771,15.299,19.866c2.186,0.095,7.489-11.642,7.489-11.642"/>
						<g>
							<path style="fill:#FFDAC5;" d="M456.925,237.224c0,0-10.275-15.736-11.143-15.736c-0.867,0,0.573,2.991-0.139,2.858
								c-0.712-0.133-4.079-6.805-4.945-6.574c-1.174,0.313,2.055,6.247,2.055,6.247s-0.924-1.133-1.864-0.567
								c-0.666,0.401-0.117,2.197-0.117,2.197s-0.991-0.685-1.673-0.254c-0.677,0.428-0.146,1.976-0.146,1.976
								s-0.924-1.294-1.7-0.338c-0.727,0.895,2.383,9.474,6.472,18.488"/>
						</g>
						<path style="fill:none;stroke:#F2A486;stroke-width:0.75;stroke-linejoin:round;stroke-miterlimit:10;" d="M446.381,225.833
							c0,0,0.246,3.199,0.988,5.841"/>
						<path style="fill:#6576EA;" d="M540.633,236.29c5.967,10.685,3.848,66.538,3.848,66.538H485.6l-0.448-32.818
							c-2.228-5.231-4.459-10.924-4.124-14.971c0.907-10.957,11.557-18.748,11.557-18.748l12.744-13.956l13.601,0.639
							L540.633,236.29z"/>
						<path style="fill:#FFDAC5;" d="M537.945,257.706c0,0,15.527,16.774,27.326,16.774c11.799,0,36.1-32.859,36.1-32.859
							l-11.463-9.017c0,0-21.244,19.104-23.383,18.646s-14.061-10.393-14.061-10.393"/>
						<path style="fill:#6576EA;" d="M518.931,222.973c0,0,14.614-0.756,21.647,4.2c5.91,4.164,17.585,17.585,17.585,17.585
							l-17.616,18.231l-13.716-13.253"/>
						<path style="fill:#6576EA;" d="M505.33,222.334c0,0-11.195-0.621-18.366,4.74c-6.6,4.934-14.868,23.928-14.868,23.928
							l22.596,6.704l6.992-17.695"/>
						
							<line style="fill:none;stroke:#3B4EA8;stroke-width:0.75;stroke-miterlimit:10;" x1="540.547" y1="262.988" x2="526.831" y2="249.736"/>
						<path style="fill:none;stroke:#3B4EA8;stroke-width:0.75;stroke-miterlimit:10;" d="M490.012,238.587
							c-0.829,0.051-9.923,10.396-8.913,17.475"/>
						<g>
							<path style="fill:#FFDAC5;" d="M586.721,235.441c0,0,13.909-12.639,14.748-12.421c0.839,0.218-1.308,2.751-0.585,2.801
								c0.722,0.05,5.662-5.557,6.442-5.116c1.057,0.599-3.562,5.527-3.562,5.527s5.334-5.188,6.101-4.403
								c0.544,0.556-4.595,6.479-4.595,6.479s4.557-3.805,5.109-3.216c0.547,0.584-3.783,5.34-3.783,5.34s3.963-3.061,4.499-2.541
								c0.534,0.519-7.461,11.211-13.69,18.903"/>
						</g>
						<path style="fill:none;stroke:#F2A486;stroke-width:0.75;stroke-linejoin:round;stroke-miterlimit:10;" d="M605.61,231.329
							c-1.88,1.699-6.435,1.229-8.242,3.398"/>
						<path style="fill:none;stroke:#F2A486;stroke-width:0.75;stroke-linejoin:round;stroke-miterlimit:10;" d="M599.795,227.074
							c0,0-1.044,3.033-2.428,5.403"/>
						<g>
							<path style="fill:#F2A486;" d="M437.388,229.055c0.493,0.74,0.995,1.474,1.536,2.173c0.27,0.349,0.553,0.689,0.857,0.997
								c0.15,0.155,0.313,0.299,0.474,0.411c0.165,0.148,0.341,0.136,0.341,0.126c0.044-0.035,0.056-0.284,0.025-0.472
								c-0.027-0.203-0.076-0.413-0.132-0.62c-0.115-0.416-0.261-0.83-0.417-1.24c-0.311-0.82-0.682-1.626-1.042-2.425
								c-0.073-0.162-0.001-0.352,0.161-0.425c0.156-0.07,0.34-0.003,0.419,0.147c0.456,0.877,0.946,1.751,1.476,2.581
								c0.267,0.412,0.545,0.821,0.851,1.178c0.149,0.172,0.321,0.349,0.46,0.43c0.076,0.054,0.1,0.016,0.014,0.044
								c-0.095,0.066-0.036,0.048-0.035-0.046c0.04-0.363-0.071-0.884-0.166-1.346c-0.106-0.476-0.237-0.953-0.378-1.428
								c-0.284-0.949-0.608-1.896-0.953-2.825l-0.002-0.006c-0.065-0.173,0.024-0.366,0.197-0.431
								c0.168-0.062,0.354,0.019,0.424,0.181c0.404,0.93,0.86,1.848,1.327,2.746c0.238,0.446,0.487,0.888,0.772,1.291
								c0.141,0.198,0.296,0.393,0.457,0.529c0.077,0.064,0.164,0.099,0.173,0.095c-0.015,0.012,0.007,0.016,0.038-0.088
								c0.082-0.405-0.016-0.949-0.1-1.434c-0.092-0.498-0.2-0.998-0.325-1.495c-0.248-0.994-0.538-1.979-0.833-2.964
								c0.405,0.946,0.764,1.911,1.09,2.89c0.161,0.49,0.316,0.984,0.441,1.489c0.104,0.517,0.253,1.002,0.169,1.617
								c-0.018,0.137-0.136,0.418-0.424,0.454c-0.251,0.021-0.4-0.092-0.527-0.175c-0.24-0.185-0.413-0.393-0.581-0.603
								c-0.329-0.422-0.605-0.865-0.873-1.313c-0.534-0.896-0.979-1.826-1.417-2.77l0.619-0.256c0.368,0.944,0.708,1.89,1.014,2.857
								c0.152,0.484,0.294,0.972,0.414,1.472c0.108,0.513,0.241,0.988,0.171,1.627c-0.032,0.146-0.051,0.404-0.378,0.59
								c-0.323,0.135-0.569-0.004-0.697-0.08c-0.289-0.184-0.456-0.388-0.634-0.592c-0.34-0.411-0.619-0.838-0.89-1.271
								c-0.536-0.868-1.014-1.753-1.468-2.661l0.58-0.278c0.37,0.822,0.677,1.66,0.965,2.512c0.14,0.427,0.27,0.859,0.372,1.305
								c0.049,0.224,0.092,0.45,0.113,0.689c-0.005,0.239,0.076,0.488-0.173,0.809c-0.15,0.154-0.391,0.134-0.514,0.089
								c-0.144-0.048-0.254-0.118-0.346-0.195c-0.198-0.148-0.35-0.321-0.499-0.494c-0.295-0.348-0.554-0.714-0.8-1.088
								C438.239,230.619,437.795,229.846,437.388,229.055z"/>
						</g>
					</g>
					<g>
						<g>
							<path style="fill:#FF7383;" d="M503.241,191.961c-2.511,4.286-6.708,16.113-7.4,22.686c-0.041,0.388,6.896,1.329,7.576,1.407
								c1.223,0.139,4.251,0.428,5.467,0.243c1.053-0.161-0.063-2.097,0.103-3.076c0.659-3.884,2.984-17.327,3.218-21.259"/>
						</g>
						<path style="fill:#FFDAC5;" d="M505.687,190.88c0,0-7.34,14.679-4.155,21.095c2.262,4.558,8.221,5.241,11.965,3.675
							c2.778-1.163,9.588-11.269,8.958-13.742C520.045,192.456,505.687,190.88,505.687,190.88z"/>
						<path style="fill:#FFDAC5;" d="M518.73,212.022l1.35,10.534c0,0-6.959,6.533-14.751-0.223l1.29-10.724L518.73,212.022z"/>
						<g>
							<path style="fill:#FF6675;" d="M514.326,218.253c5.419-0.453,9.095-1.331,13.828-3.177c0.379-3.52,0.583-14.156-1.698-19.665
								c-1.148-2.773-3.075-5.496-5.904-6.569c-3.089-1.172-6.146-1.171-9.405-0.34c-3.593-2.439-10.178-1.252-11.117,5.96
								c5.633-0.602,9.53,0.101,15.127,0.977c0.034,2.549,0.278,5.094,0.727,7.604C516.235,205,515.962,215.077,514.326,218.253z"/>
						</g>
						<path style="fill:none;stroke:#F2A486;stroke-width:0.75;stroke-linejoin:round;stroke-miterlimit:10;" d="M506.062,216.246
							c5.655,0.592,8.148-1.861,8.148-1.861"/>
						<path style="fill:none;stroke:#F2A486;stroke-width:0.75;stroke-linejoin:round;stroke-miterlimit:10;" d="M506.683,201.811
							c0,0-2.83,3.454-2.716,4.515c0.114,1.061,2.563,1.455,2.563,1.455"/>
						<path style="fill:#FFFFFF;" d="M503.507,208.756l6.617,1.682c0,0-1.666,3.327-5.235,2.154
							C502.343,211.756,503.507,208.756,503.507,208.756z"/>
						<g>
							<g>
								<path style="fill:#00276F;" d="M503.607,200.324c-0.159,0.296-0.298,0.603-0.423,0.915c-0.188,0.471,0.574,0.676,0.761,0.21
									c0.112-0.281,0.21-0.568,0.29-0.859C504.337,200.219,503.794,199.976,503.607,200.324L503.607,200.324z"/>
							</g>
						</g>
						
							<path style="fill:none;stroke:#00276F;stroke-width:0.5;stroke-linecap:round;stroke-linejoin:round;stroke-miterlimit:10;" d="
							M505.323,198.994c0,0-0.879-1.501-2.49-0.576"/>
						<g>
							<g>
								<path style="fill:#00276F;" d="M511.42,202.958c-0.141,0.303-0.268,0.615-0.374,0.932c-0.162,0.483,0.6,0.689,0.761,0.21
									c0.096-0.287,0.177-0.581,0.241-0.877C512.126,202.865,511.594,202.586,511.42,202.958L511.42,202.958z"/>
							</g>
						</g>
						
							<path style="fill:none;stroke:#00276F;stroke-width:0.5;stroke-linecap:round;stroke-linejoin:round;stroke-miterlimit:10;" d="
							M511.305,200.337c0,0,1.706-0.381,3.198,1.75"/>
						<path style="fill:#FFDAC5;" d="M515.265,205.8c1.536-2.361,2.917-2.066,3.736-0.851c1.093,1.62-0.674,5.187-1.561,5.825
							c-1.797,1.292-2.985,0.874-3.231-0.748"/>
					</g>
					<path style="fill:#423EAC;" d="M544.481,302.829c0,0,12.687,41.28-18.07,41.28h-20.175c-1.262,0-2.221,1.135-2.012,2.379
						l4.404,26.134h-71.312c0,0-4.167-42.288-2.228-50.294c2.228-9.204,11.468-19.517,28.416-19.517
						c16.948,0,23.247-0.398,23.247-0.398"/>
				</g>
			</g>
			<g>
				<g>
					<line style="fill:none;stroke:#3D4FB7;stroke-miterlimit:10;" x1="271.743" y1="354.299" x2="254.152" y2="445.499"/>
					<line style="fill:none;stroke:#3D4FB7;stroke-miterlimit:10;" x1="309.512" y1="354.299" x2="327.103" y2="445.499"/>
					<line style="fill:none;stroke:#3D4FB7;stroke-miterlimit:10;" x1="289.698" y1="354.299" x2="284.861" y2="445.499"/>
					<path style="fill:#E8EEFE;" d="M284.914,215.802c-88.197,0-65.455,140.327-27.665,140.327s86.359,0,86.359,0
						c11.728,0,15.12-14.809,2.928-14.809c-12.192,0-21.642,0-21.642,0S349.273,215.802,284.914,215.802z"/>
					<path style="fill:#CDDBFC;" d="M266.136,344.305c37.79,0,86.359,0,86.359,0c0.289,0,0.57-0.014,0.849-0.03
						c-1.105-1.735-3.313-2.953-6.807-2.953c-12.192,0-21.642,0-21.642,0s21.396-110.174-28.83-124.079
						c-0.746-0.032-1.492-0.063-2.264-0.063C205.603,217.178,228.346,344.305,266.136,344.305z"/>
				</g>
				<g>
					<g>
						<g>
							<polyline style="fill:#FFDAC5;" points="341.887,398.424 334.787,430.487 344.973,440.764 313.964,427.744 320.08,391.259 
															"/>
							<path style="fill:#313131;" d="M336.441,426.541c0.956,0.55,0.085,1.177,1.414,3.675c1.329,2.499,7.876,6.81,12.378,9.17
								c4.355,2.282,2.622,6.371,1.052,6.1c0,0-22.959-3.956-24.78-4.27c-1.821-0.314-3.419-2.694-4.288-2.87l-1.473-0.298
								l-0.441,1.861c-0.031,0.129-0.156,0.212-0.287,0.19l-8.17-1.408c-0.944-0.163-1.385-0.907-1.192-1.648
								c0,0,2.388-9.022,2.418-9.831c0.03-0.81-0.046-2.254,0.688-2.797c0.734-0.543,1.319,1.06,2.681,1.493
								c3.669,1.165,10.318,2.517,12.538,2.22c1.231-0.164,0.172-1.331,0.752-1.772
								C330.312,425.915,335.485,425.991,336.441,426.541z"/>
							
								<line style="fill:none;stroke:#515151;stroke-width:0.75;stroke-miterlimit:10;" x1="310.897" y1="436.056" x2="352.616" y2="444.17"/>
						</g>
						<g>
							<polyline style="fill:#FFDAC5;" points="390.339,393.814 394.457,429.109 407.749,434.828 374.121,434.359 367.435,395.33 
															"/>
							<path style="fill:#313131;" d="M394.515,424.831c1.092,0.152,0.519,1.06,2.687,2.879c2.167,1.82,9.852,3.368,14.91,3.871
								c4.893,0.487,4.816,4.926,3.258,5.263c0,0-22.771,4.924-24.577,5.314c-1.806,0.391-4.179-1.219-5.05-1.057l-1.478,0.275
								l0.288,1.891c0.02,0.131-0.065,0.255-0.195,0.283l-8.103,1.752c-0.936,0.203-1.624-0.322-1.722-1.082
								c0,0-1.161-9.26-1.437-10.022c-0.275-0.762-0.886-2.073-0.409-2.851c0.478-0.778,1.62,0.49,3.044,0.381
								c3.838-0.293,10.511-1.527,12.458-2.633c1.08-0.613-0.339-1.299,0.034-1.925
								C388.597,426.544,393.422,424.679,394.515,424.831z"/>
							
								<line style="fill:none;stroke:#515151;stroke-width:0.75;stroke-miterlimit:10;" x1="374.388" y1="443.215" x2="416.112" y2="435.126"/>
						</g>
						<path style="fill:#212121;" d="M298.002,306.639c-6.397,8.828-7.97,37.466,10.832,37.466s43.687,0,43.687,0l10.727,79.604
							l31.891-4.117c0,0-9.888-77.831-11.2-84.404c-2.543-12.742-9.28-24.712-28.57-24.712c-18.146,0-34.91,0-34.91,0"/>
						<path style="fill:none;stroke:#313131;stroke-miterlimit:10;" d="M313.976,332.82h39.069c2.645,0,4.882,1.956,5.235,4.577
							l11.517,85.467"/>
						<path style="fill:#313131;" d="M261.615,306.639c-6.397,8.828-9.539,37.466,10.832,37.466c20.371,0,47.57,0,47.57,0
							l-10.132,75.182l32.92,4.433c0,0,12.372-81.921,13.474-88.532c1.102-6.612,1.571-24.712-24.066-24.712
							c-18.147,0-48.139,0-48.139,0"/>
						<path style="fill:none;stroke:#515151;stroke-width:0.75;stroke-miterlimit:10;" d="M268.816,306.639
							c-9.226,11.606-7.031,31.845,7.286,31.845h46.841c2.301,0,3.938,2.239,3.238,4.432l-11.986,76.951"/>
						<path style="fill:none;stroke:#515151;stroke-width:0.75;stroke-miterlimit:10;" d="M263.932,317.042
							c0,0,8.515,0,15.622-10.403"/>
					</g>
					<g>
						<g>
							<path style="fill:#FFDAC5;" d="M361.816,241.823c0,0,10.938-15.282,11.805-15.245c0.866,0.037-0.7,2.964,0.017,2.862
								c0.717-0.103,4.366-6.624,5.222-6.357c1.16,0.363-2.32,6.153-2.32,6.153s0.971-1.093,1.886-0.487
								c0.648,0.429,0.023,2.2,0.023,2.2s1.019-0.642,1.682-0.183c0.658,0.456,0.061,1.98,0.061,1.98s0.978-1.253,1.713-0.265
								c0.688,0.925-2.785,9.364-7.256,18.195"/>
						</g>
						<path style="fill:none;stroke:#F2A486;stroke-width:0.75;stroke-linejoin:round;stroke-miterlimit:10;" d="M372.837,230.893
							c0,0-0.383,3.185-1.237,5.793"/>
						<g>
							<path style="fill:#F2A486;" d="M381.684,234.495c-0.441,0.773-0.917,1.527-1.443,2.25c-0.261,0.363-0.536,0.718-0.846,1.053
								c-0.156,0.167-0.316,0.333-0.519,0.473c-0.095,0.073-0.208,0.138-0.354,0.18c-0.124,0.039-0.366,0.049-0.509-0.111
								c-0.236-0.331-0.144-0.576-0.139-0.815c0.031-0.237,0.084-0.462,0.142-0.683c0.12-0.441,0.269-0.867,0.427-1.288
								c0.324-0.839,0.667-1.664,1.071-2.469l0.567,0.302c-0.493,0.888-1.008,1.752-1.581,2.596
								c-0.29,0.421-0.586,0.836-0.944,1.232c-0.186,0.196-0.362,0.393-0.659,0.564c-0.132,0.071-0.383,0.199-0.7,0.051
								c-0.319-0.2-0.327-0.459-0.353-0.606c-0.043-0.641,0.111-1.111,0.241-1.619c0.141-0.495,0.304-0.977,0.477-1.453
								c0.347-0.953,0.727-1.884,1.135-2.811l0.608,0.282c-0.478,0.924-0.962,1.835-1.534,2.707
								c-0.286,0.436-0.581,0.866-0.928,1.274c-0.176,0.203-0.358,0.403-0.606,0.578c-0.13,0.077-0.284,0.184-0.534,0.152
								c-0.286-0.048-0.392-0.334-0.405-0.471c-0.058-0.618,0.112-1.097,0.238-1.608c0.146-0.5,0.322-0.987,0.504-1.469
								c0.368-0.964,0.767-1.913,1.212-2.84c-0.336,0.972-0.669,1.944-0.959,2.926c-0.145,0.491-0.275,0.986-0.388,1.479
								c-0.104,0.48-0.226,1.02-0.161,1.428c0.026,0.105,0.049,0.103,0.034,0.09c0.009,0.004,0.097-0.027,0.177-0.088
								c0.167-0.13,0.33-0.317,0.48-0.509c0.301-0.39,0.569-0.821,0.826-1.256c0.505-0.877,1-1.775,1.443-2.687
								c0.081-0.166,0.281-0.236,0.448-0.155c0.161,0.078,0.231,0.268,0.163,0.431l-0.003,0.007
								c-0.385,0.913-0.749,1.846-1.073,2.781c-0.161,0.468-0.312,0.94-0.439,1.411c-0.114,0.458-0.248,0.974-0.223,1.338
								c-0.003,0.094,0.055,0.114-0.037,0.045c-0.085-0.031-0.063,0.008,0.016-0.043c0.143-0.075,0.322-0.244,0.478-0.41
								c0.321-0.343,0.616-0.74,0.901-1.141c0.566-0.806,1.092-1.658,1.585-2.515c0.087-0.155,0.283-0.209,0.438-0.122
								c0.149,0.084,0.204,0.273,0.129,0.425c-0.393,0.782-0.799,1.572-1.144,2.378c-0.174,0.403-0.337,0.81-0.47,1.221
								c-0.065,0.205-0.123,0.412-0.159,0.614c-0.039,0.186-0.037,0.436,0.005,0.473c0,0.01,0.175,0.029,0.347-0.111
								c0.166-0.105,0.336-0.243,0.492-0.391c0.317-0.294,0.614-0.622,0.899-0.959C380.628,235.926,381.16,235.214,381.684,234.495z
								"/>
						</g>
						<path style="fill:#FF6675;" d="M266.528,224.569c-2.676,7.392-5.124,85.907-5.124,85.907h74.809
							c0,0-7.567-58.671-12.902-71.876l-19.068-17.124l-16.492-1.105C287.751,220.371,281.713,219.514,266.528,224.569z"/>
						<g>
							
								<line style="fill:none;stroke:#212237;stroke-width:0.5;stroke-miterlimit:10;" x1="308.547" y1="197.58" x2="304.243" y2="200.921"/>
							<path style="fill:#FFDAC5;" d="M303.667,190.88c0,0,7.763,14.845,4.707,21.323c-1.589,3.367-8.773,5.012-12.517,3.447
								c-2.778-1.163-9.588-11.269-8.958-13.742C289.309,192.456,303.667,190.88,303.667,190.88z"/>
							<path style="fill:#FFDAC5;" d="M289.808,212.022l-2.057,8.349c3.533,2.547,10.297,4.956,16.492,1.105l0.661-9.856
								L289.808,212.022z"/>
							<g>
								<path style="fill:#2D2E35;" d="M284.67,209.581c-1.506-3.082-1.934-4.479-2.791-8.327c-0.894-4.02,2.089-5.478,2.089-5.478
									s-0.486,0.505,0.865-3.169c0.7-1.904,3.463-3.723,5.333-4.251c1.202-0.339,2.487-0.542,3.498-1.276
									c0.786-0.57,1.336-1.416,2.11-2.003c1.351-1.024,3.354-1.087,4.767-0.15c1.271,0.843,2.097,2.394,3.57,2.789
									c0.569,0.153,1.175,0.109,1.749,0.243c0.986,0.231,1.801,0.989,2.237,1.902s0.523,1.965,0.394,2.969
									c-0.098,0.763-0.333,1.54-0.858,2.102c-1.065,1.141-2.876,1.034-4.417,0.785c-1.541-0.249-3.295-0.5-4.51,0.479
									c-0.667,0.538-1.062,1.382-1.796,1.822c-0.755,0.453-1.706,0.386-2.546,0.65c-1.1,0.345-1.985,1.305-2.239,2.43
									c-0.142,0.627-0.099,1.282-0.194,1.918c-0.134,0.9-0.539,1.734-0.822,2.6c-0.918,2.809,1.525,4.916,1.279,7.677
									c-0.091,1.015-3.475,2.355-3.475,2.355S286.309,212.932,284.67,209.581z"/>
							</g>
							<path style="fill:none;stroke:#F2A486;stroke-width:0.75;stroke-linejoin:round;stroke-miterlimit:10;" d="M304.243,215.65
								c-5.014,1.072-9.099,0.107-9.099,0.107"/>
							<path style="fill:none;stroke:#F2A486;stroke-width:0.75;stroke-linejoin:round;stroke-miterlimit:10;" d="M302.671,201.811
								c0,0,2.83,3.454,2.716,4.515c-0.114,1.061-2.563,1.455-2.563,1.455"/>
							<path style="fill:#FFFFFF;" d="M305.847,208.756l-6.617,1.682c0,0,1.665,3.327,5.235,2.154
								C307.011,211.756,305.847,208.756,305.847,208.756z"/>
							<g>
								<g>
									<path style="fill:#00276F;" d="M305.118,200.589c0.081,0.291,0.178,0.579,0.29,0.859c0.186,0.465,0.95,0.263,0.761-0.21
										c-0.125-0.312-0.263-0.619-0.423-0.915C305.561,199.979,305.015,200.216,305.118,200.589L305.118,200.589z"/>
								</g>
							</g>
							
								<path style="fill:none;stroke:#00276F;stroke-width:0.5;stroke-linecap:round;stroke-linejoin:round;stroke-miterlimit:10;" d="
								M304.03,198.994c0,0,0.879-1.501,2.49-0.576"/>
							<g>
								<g>
									<path style="fill:#00276F;" d="M297.305,203.223c0.064,0.296,0.145,0.59,0.241,0.877c0.161,0.479,0.923,0.274,0.761-0.21
										c-0.106-0.317-0.233-0.629-0.374-0.932C297.762,202.59,297.227,202.861,297.305,203.223L297.305,203.223z"/>
								</g>
							</g>
							
								<path style="fill:none;stroke:#00276F;stroke-width:0.5;stroke-linecap:round;stroke-linejoin:round;stroke-miterlimit:10;" d="
								M298.048,200.337c0,0-1.706-0.381-3.198,1.75"/>
							<path style="fill:none;stroke:#212237;stroke-width:0.5;stroke-miterlimit:10;" d="M301.166,203.1
								c0,2.247-1.821,4.068-4.068,4.068s-4.068-1.821-4.068-4.068c0-2.247,1.821-4.068,4.068-4.068S301.166,200.854,301.166,203.1z
								"/>
							<path style="fill:none;stroke:#212237;stroke-width:0.5;stroke-miterlimit:10;" d="M309.287,199.002
								c0.726,2.126,0.017,4.293-1.584,4.839c-1.601,0.546-3.487-0.734-4.212-2.861c-0.726-2.126-0.017-4.293,1.584-4.839
								C306.675,195.595,308.561,196.876,309.287,199.002z"/>
							
								<line style="fill:none;stroke:#212237;stroke-width:0.5;stroke-miterlimit:10;" x1="303.257" y1="199.991" x2="300.532" y2="200.921"/>
							
								<line style="fill:none;stroke:#212237;stroke-width:0.5;stroke-miterlimit:10;" x1="293.058" y1="203.564" x2="289.502" y2="207.78"/>
							<path style="fill:#FFDAC5;" d="M294.482,212.029c0.159,1.633-1.304,2.055-3.363,1.242c-1.016-0.401-3.602-3.427-2.939-5.266
								c0.497-1.379,1.764-2.003,3.831-0.09"/>
						</g>
						<path style="fill:#FF6675;" d="M304.243,221.476c0,0,17.073-1.283,25.37,8.944c5.124,6.316,13.255,31.392,13.255,31.392
							l20.324-24.509l15.289,9.405c0,0-18.719,46.024-35.66,46.024c-24.064,0-32.408-43.413-32.408-43.413"/>
						<path style="fill:none;stroke:#C93F53;stroke-width:0.75;stroke-miterlimit:10;" d="M333.361,289.868
							c-0.978-8.237-5.464-42.655-8.932-47.968"/>
						<path style="fill:#FFFFFF;" d="M285.544,220.442l2.901-2.886c0,0,5.894,5.261,10.363,5.84l-2.978,6.171
							C289.502,228.514,285.544,220.442,285.544,220.442z"/>
						<path style="fill:#FFFFFF;" d="M304.616,218.544c-2.017,3.607-5.807,4.851-5.807,4.851l3.862,5.605
							c3.242-2.675,3.718-7.575,3.718-7.575L304.616,218.544z"/>
						
							<line style="fill:none;stroke:#C93F53;stroke-width:0.75;stroke-miterlimit:10;" x1="360.787" y1="240.099" x2="376.361" y2="250.811"/>
					</g>
					<g>
						<g>
							<path style="fill:#FFDAC5;" d="M307.211,274.733c0,0,17.344,3.209,17.683,4.008c0.339,0.798-2.977,0.641-2.577,1.245
								c0.401,0.603,8.046,0.761,8.172,1.648c0.171,1.203-6.741,0.884-6.741,0.884s7.553,0.726,7.399,1.813
								c-0.109,0.77-5.898,0.48-8.125,0.647c2.436,0.126,6.358,0.798,6.229,1.595c-0.129,0.79-4.074,0.677-7.103,0.751
								c1.894,0.13,5.328,0.553,5.242,1.294c-0.085,0.739-13.15,1.233-22.215,1.248"/>
						</g>
						<path style="fill:#FF6675;" d="M281.189,220.805c-7.613,0.873-19.129,3.702-22.983,11.419
							c-6.199,12.411-11.741,57.786,1.909,57.786c13.65,0,48.432,0,48.432,0v-16.022l-34.111-4.923
							c-0.224-3.804,2.011-23.827,2.011-23.827"/>
						<path style="fill:none;stroke:#C93F53;stroke-width:0.75;stroke-miterlimit:10;" d="M308.547,273.989l-34.111-4.923
							c-0.224-3.804,2.011-23.827,2.011-23.827"/>
						
							<line style="fill:none;stroke:#C93F53;stroke-width:0.75;stroke-miterlimit:10;" x1="303.445" y1="273.253" x2="302.945" y2="290.01"/>
					</g>
				</g>
			</g>
			<g>
				<g>
					<path style="fill:#C9CED6;" d="M297.566,287.588h43.242v2.422h-45.664l0,0C295.144,288.673,296.228,287.588,297.566,287.588z"
						/>
					<path style="fill:#C9CED6;" d="M393.501,290.01h-60.754l11.617-37.331c0.596-1.914,2.367-3.218,4.372-3.218h54.927
						c1.219,0,2.089,1.181,1.726,2.345L393.501,290.01z"/>
					<path style="fill:#E8EAEF;" d="M396.23,290.01h-60.754l11.617-37.331c0.596-1.914,2.367-3.218,4.372-3.218h54.927
						c1.219,0,2.089,1.181,1.726,2.345L396.23,290.01z"/>
					<path style="fill:#C9CED6;" d="M378.307,270.345c-0.356,1.742-2.467,3.154-4.715,3.154c-2.248,0-3.782-1.412-3.426-3.154
						c0.356-1.742,2.467-3.154,4.715-3.154C377.129,267.191,378.663,268.603,378.307,270.345z"/>
				</g>
				<g>
					<g>
						<g>
							<path style="fill:#E8EAEF;" d="M437.414,285.078h-3.238v-1.544h3.238c1.043,0,1.892-0.849,1.892-1.892v-2.661
								c0-1.043-0.849-1.891-1.892-1.891h-3.238v-1.544h3.238c1.895,0,3.436,1.541,3.436,3.435v2.661
								C440.85,283.537,439.308,285.078,437.414,285.078z"/>
						</g>
					</g>
					<path style="fill:#E8EAEF;" d="M430.48,289.142h-0.818c-3.382,0-6.124-2.742-6.124-6.124v-9.661h13.066v9.661
						C436.603,286.4,433.862,289.142,430.48,289.142z"/>
					<path style="fill:#CFDAE5;" d="M421.423,286.937c0,0,0.127,3.073,4.902,3.073h7.49c4.776,0,4.902-3.073,4.902-3.073H421.423z"
						/>
				</g>
				<g>
					<path style="fill:#C9CED6;" d="M553.012,287.588H509.77l-0.127,2.422h45.664l0,0
						C555.377,288.673,554.35,287.588,553.012,287.588z"/>
					<path style="fill:#C9CED6;" d="M456.95,290.01h60.754l-9.66-37.331c-0.495-1.914-2.198-3.218-4.203-3.218h-54.927
						c-1.219,0-2.151,1.181-1.849,2.345L456.95,290.01z"/>
					<path style="fill:#E8EAEF;" d="M454.221,290.01h60.754l-9.66-37.331c-0.495-1.914-2.198-3.218-4.203-3.218h-54.927
						c-1.219,0-2.151,1.181-1.849,2.345L454.221,290.01z"/>
					<path style="fill:#C9CED6;" d="M473.175,270.345c0.265,1.742,2.302,3.154,4.55,3.154c2.248,0,3.856-1.412,3.591-3.154
						c-0.265-1.742-2.302-3.154-4.55-3.154C474.518,267.191,472.91,268.603,473.175,270.345z"/>
				</g>
				<g>
					<g>
						<g>
							<path style="fill:#E8EAEF;" d="M549.438,285.078H546.2v-1.544h3.238c1.043,0,1.892-0.849,1.892-1.892v-2.661
								c0-1.043-0.849-1.891-1.892-1.891H546.2v-1.544h3.238c1.895,0,3.436,1.541,3.436,3.435v2.661
								C552.874,283.537,551.332,285.078,549.438,285.078z"/>
						</g>
					</g>
					<path style="fill:#E8EAEF;" d="M542.504,290.01h-0.818c-3.382,0-6.124-2.742-6.124-6.124v-10.53h13.066v10.53
						C548.627,287.269,545.886,290.01,542.504,290.01z"/>
					<path style="fill:#FFFFFF;" d="M533.447,286.937c0,0,0.127,3.073,4.902,3.073h7.49c4.776,0,4.902-3.073,4.902-3.073H533.447z"
						/>
				</g>
			</g>
			<g>
				<g id="XMLID_60_">
					<path id="XMLID_139_" style="fill:#93A5F9;" d="M637.432,344.8c-0.715,0.509-1.31,1.233-1.569,2.094
						c-0.559,1.867,0.535,3.793,1.581,5.417c2.618,4.067,5.237,8.133,7.855,12.201c2.038,3.166,7.764,9.799,11.942,6.8
						c3.481-2.499,1.511-8.454-0.106-11.532c-2.243-4.27-5.17-8.196-8.497-11.604c-1.508-1.545-3.154-3.016-5.126-3.81
						C641.541,343.572,639.176,343.555,637.432,344.8z"/>
					<path id="XMLID_39_" style="fill:none;stroke:#7289F7;stroke-miterlimit:10;" d="M639.849,347.317
						c4.558,4.584,8.481,9.853,11.61,15.593"/>
					<path id="XMLID_474_" style="fill:#CDDBFC;" d="M656.405,297.897c-0.715,0.509-1.311,1.233-1.569,2.094
						c-0.559,1.867,0.535,3.793,1.581,5.417c2.618,4.067,5.237,8.133,7.856,12.2c2.039,3.166,7.764,9.799,11.942,6.8
						c3.481-2.499,1.51-8.454-0.106-11.532c-2.243-4.27-5.17-8.196-8.497-11.604c-1.508-1.545-3.154-3.016-5.126-3.81
						C660.513,296.669,658.149,296.653,656.405,297.897z"/>
					<path id="XMLID_84_" style="fill:none;stroke:#7289F7;stroke-miterlimit:10;" d="M658.822,300.414
						c4.558,4.584,8.481,9.853,11.61,15.593"/>
					<path id="XMLID_578_" style="fill:#93A5F9;" d="M622.112,341.394c-3.172-2.461-8.381-1.107-11.715,0.223
						c-6.707,2.677-13.131,7.092-16.517,13.694c-1.71,3.334-2.564,7.35-1.364,10.884c0.765,2.252,2.78,4.355,5.055,3.957
						c0.797-0.139,1.519-0.567,2.214-1c5.88-3.659,11.259-8.195,15.928-13.418C618.553,352.559,627.584,345.92,622.112,341.394"/>
					<path id="XMLID_435_" style="fill:none;stroke:#7289F7;stroke-miterlimit:10;" d="M603.682,358.882
						c4.95-5.947,10.789-11.093,17.237-15.192"/>
					<path id="XMLID_64_" style="fill:#93A5F9;" d="M633.967,276.256c-0.68-5.116-4.899-8.921-9.253-11.387
						c-7.71-4.367-17.337-6.005-25.288-2.136c-0.884,0.43-1.824,1.03-2.065,2.016c-0.205,0.838,0.163,1.706,0.579,2.454
						c1.483,2.66,3.688,4.815,6.088,6.607c6.077,4.537,13.103,6.098,19.739,9.236c3.824,1.808,8.662,3.024,11.944,0.294"/>
					<path id="XMLID_377_" style="fill:none;stroke:#3F71EF;stroke-miterlimit:10;" d="M612.406,293.94
						c14.164,29.494,9.554,61.697,16.042,93.979"/>
					<path id="XMLID_404_" style="fill:none;stroke:#3F71EF;stroke-miterlimit:10;" d="M658.881,288.792
						c-2.571,0.149-3.762,3.336-4.316,5.957c-5.431,25.723-10.141,61.699-10.097,88.038"/>
					<path id="XMLID_405_" style="fill:none;stroke:#3F71EF;stroke-miterlimit:10;" d="M605.73,326.314
						c11.279,21.4,6.953,45.132,14.387,68.287"/>
					<path id="XMLID_406_" style="fill:#93A5F9;" d="M606.219,321.141c-3.482-3.414-9.867-2.564-14.01-1.464
						c-8.335,2.212-16.547,6.547-21.402,13.948c-2.452,3.738-3.966,8.418-2.97,12.825c0.635,2.808,2.781,5.623,5.545,5.484
						c0.968-0.049,1.882-0.455,2.766-0.87c7.468-3.51,14.448-8.145,20.665-13.705C600.594,333.977,612.191,327.366,606.219,321.141"
						/>
					<path id="XMLID_369_" style="fill:none;stroke:#7289F7;stroke-miterlimit:10;" d="M582.065,339.347
						c6.642-6.386,14.245-11.682,22.446-15.635"/>
					<path id="XMLID_480_" style="fill:#CDDBFC;" d="M614.703,295.667c-1.31-4.046-10.193-4.527-13.532-4.736
						c-3.823-0.239-7.789,0.378-11.076,2.427c-3.286,2.05-5.79,5.683-5.964,9.671c-0.026,0.604,0.005,1.234,0.278,1.767
						c0.381,0.744,1.156,1.163,1.907,1.476c3.45,1.437,7.302,1.558,10.974,0.975c3.673-0.583,7.212-1.839,10.727-3.095
						c1.507-0.538,3.042-1.093,4.313-2.094C614.063,300.693,615.359,297.918,614.703,295.667"/>
					<path id="XMLID_437_" style="fill:none;stroke:#7289F7;stroke-miterlimit:10;" d="M593.152,298.735
						c6.381-1.731,13.021-2.417,19.604-2.023"/>
					<path id="XMLID_518_" style="fill:#CDDBFC;" d="M593.88,330.329c-0.662,4.256-2.378,15.069,2.586,17.393
						c6.487,3.038,14.169-12.33,16.423-16.759c2.431-4.777,4.869-9.571,6.658-14.647c1.188-3.372,1.871-7.709-0.711-10.089
						c-1.442-1.328-3.539-1.602-5.446-1.339c-3.862,0.532-7.264,2.96-10.029,5.819C598.279,315.964,595.023,322.988,593.88,330.329z
						"/>
					<path id="XMLID_441_" style="fill:none;stroke:#7289F7;stroke-miterlimit:10;" d="M602.005,331.771
						c3.613-8.633,8.528-16.672,14.508-23.732"/>
					<path id="XMLID_62_" style="fill:none;stroke:#7289F7;stroke-miterlimit:10;" d="M613.287,269.851
						c6.363,1.578,12.407,4.539,17.632,8.639"/>
					<path id="XMLID_403_" style="fill:none;stroke:#3F71EF;stroke-miterlimit:10;" d="M639.625,276.284
						c0,0-0.764,27.342,0.288,50.38c0.9,19.712,0.364,36.495-1.601,56.123"/>
					<path id="XMLID_496_" style="fill:#CDDBFC;" d="M638.149,270.215c-2.49-0.142-4.812,1.548-6.207,3.703
						c-1.394,2.155-2.034,4.73-2.65,7.249c-1.135,4.644-3.419,8.714-4.575,13.388c-1.227,4.961-1.713,10.122-1.416,15.237
						c0.154,2.645,0.71,5.617,2.852,7.044c1.466,0.977,3.4,0.963,5.021,0.303c1.621-0.66,2.97-1.893,4.135-3.241
						c3.725-4.31,5.836-9.921,6.877-15.62c1.108-6.067,0.997-12.252,2.095-18.242C645.138,275.368,643.021,270.647,638.149,270.215"
						/>
					<path id="XMLID_61_" style="fill:none;stroke:#7289F7;stroke-miterlimit:10;" d="M628.992,308.526
						c1.434-11.875,4.658-23.513,9.519-34.356"/>
					<g id="XMLID_359_">
						<g id="XMLID_187_">
							<polygon id="XMLID_358_" style="fill:#E8EEFE;" points="652.867,424.614 614.43,424.614 607.025,376.186 660.272,376.186 
															"/>
							<polygon id="XMLID_214_" style="fill:#3D4FB7;" points="658.181,389.86 658.612,387.042 608.685,387.042 609.116,389.86 
															"/>
						</g>
						
							<line id="XMLID_182_" style="fill:none;stroke:#3D4FB7;stroke-miterlimit:10;" x1="616.87" y1="388.451" x2="605.184" y2="445.499"/>
						
							<line id="XMLID_181_" style="fill:none;stroke:#3D4FB7;stroke-miterlimit:10;" x1="650.177" y1="388.451" x2="661.864" y2="445.499"/>
						
							<line id="XMLID_160_" style="fill:none;stroke:#3D4FB7;stroke-miterlimit:10;" x1="633.524" y1="388.451" x2="633.524" y2="445.499"/>
					</g>
					<path id="XMLID_513_" style="fill:#93A5F9;" d="M651.445,314.222c2.704-2.63,8.83-1.101,12.153-0.052
						c4.958,1.565,9.788,4.619,13.903,7.864c2.689,2.12,5.229,4.566,6.86,7.629c1.63,3.062,2.25,6.831,1.02,10.029
						c-0.451,1.172-1.166,2.27-2.202,2.926c-0.78,0.494-1.697,0.712-2.608,0.837c-3.325,0.455-6.814-0.282-9.744-2.057
						c-2.398-1.453-4.377-3.54-6.324-5.6c-3.757-3.976-7.547-7.952-11.363-11.838C650.408,321.177,648.201,317.58,651.445,314.222"
						/>
					<path id="XMLID_471_" style="fill:none;stroke:#7289F7;stroke-miterlimit:10;" d="M677.299,332.789
						c-7.139-6.516-15.269-11.916-23.998-15.942"/>
					<path id="XMLID_63_" style="fill:#CDDBFC;" d="M619.161,326.676c-1.767,2.895,5.744,9.943,7.429,11.675
						c3.896,4.004,8.248,7.527,12.94,10.461c4.149,2.595,9.007,4.79,13.709,3.604c1.712-0.431,3.428-1.427,4.126-3.113
						c0.515-1.243,0.401-2.666,0.17-3.999c-0.663-3.833-2.221-7.493-4.503-10.577c-3.987-5.388-9.94-8.668-16.16-10.382
						C631.621,322.898,622.589,320.607,619.161,326.676"/>
					<path id="XMLID_65_" style="fill:none;stroke:#7289F7;stroke-miterlimit:10;" d="M622.65,327.479
						c9.034,4.732,17.823,9.971,26.318,15.687"/>
					<path id="XMLID_519_" style="fill:#CDDBFC;" d="M652.581,293.297c2.032-7.007,10.629-5.516,15.436-6.563
						c4.034-0.879,8.153-1.555,12.265-1.263c4.112,0.292,8.251,1.617,11.418,4.366c1.362,1.182,2.563,2.686,2.957,4.487
						c0.683,3.122-1.208,6.257-3.495,8.396c-6.873,6.427-14.362,5.34-22.347,2.908C663.257,303.935,649.026,303.282,652.581,293.297
						"/>
					<path id="XMLID_473_" style="fill:none;stroke:#7289F7;stroke-miterlimit:10;" d="M688.527,300.739
						c-10.562-3.588-21.665-5.444-32.774-5.48"/>
				</g>
				<g id="XMLID_436_">
					<path id="XMLID_409_" style="fill:#93A5F9;" d="M136.601,298.62c3.472-0.551,7.146-1.077,10.385,0.389
						c2.908,1.316,5.027,4.041,7.317,6.391c2.289,2.35,5.173,4.504,8.309,4.185c3.308-0.337,6.002-3.61,6.435-7.189
						c0.433-3.578-1.132-7.228-3.596-9.649c-2.465-2.421-5.724-3.72-9.01-4.257c-3.286-0.536-6.631-0.362-9.949-0.159"/>
					<path id="XMLID_375_" style="fill:#93A5F9;" d="M157.156,326.847c2.464,0.212,4.981,0.509,7.201,1.643s4.118,3.272,4.369,5.835
						c0.251,2.564-1.622,5.346-4.094,5.394c-1.525,0.03-2.918-0.903-4.042-1.978c-1.233-1.178-2.343-2.511-3.673-3.576
						c-1.509-1.208-3.239-1.734-5.012-2.38c-1.92-0.699-3.952-1.84-4.56-3.863"/>
					<path id="XMLID_373_" style="fill:#CDDBFC;" d="M124.701,350.544c-0.324-7.945,2.732-16.075,8.476-21.308
						c5.744-5.233,14.14-7.285,21.384-4.794c2.964,1.019,7.054,2.156,10.708,4.585c-10.574-1.353-19.836,7.544-21.534,8.802
						c-1.075,0.796-2.038,1.741-3.025,2.652C136.551,344.319,129.653,347.92,124.701,350.544"/>
					<path id="XMLID_367_" style="fill:#CDDBFC;" d="M119.127,331.901c0.624-3.796-0.479-7.634-1.203-11.41
						c-1.476-7.699-1.302-16.029,2.184-22.989c3.486-6.96,10.792-12.156,18.284-11.338c2.707,0.295,5.292,1.324,7.976,1.797
						c2.529,0.446,5.111,0.393,7.675,0.343c1.141-0.022,2.682,0.311,3.525,0.863c-7.335,1.894-11.452,8.694-18.606,12.569
						C131.62,305.713,130.625,319.915,119.127,331.901"/>
					<path id="XMLID_366_" style="fill:#CDDBFC;" d="M113.056,322.629c-0.282-4.047-2.763-7.574-5.582-10.372
						c-2.819-2.798-6.072-5.128-8.623-8.193c-1.536-1.846-2.788-3.925-4.034-5.995c-1.828-3.038-3.656-6.076-5.485-9.114
						c-1.155-1.92-2.313-3.844-3.275-5.878c-1.058-2.237-1.872-4.591-2.632-6.956c-0.753-2.343-1.456-4.704-2.107-7.079
						c-0.5-1.823-0.974-3.678-0.993-5.574c-0.019-1.896,0.461-3.862,1.666-5.281c1.601-1.884,4.258-2.507,6.639-2.093
						c2.381,0.414,4.532,1.722,6.489,3.196c1.207,0.909,2.372,1.897,3.323,3.092c2.551,3.204,3.305,7.507,4.713,11.405
						c2.529,7.002,7.324,12.973,9.488,20.106c0.696,2.294,1.107,4.67,1.457,7.047C114.842,305.961,115.688,317.121,113.056,322.629"
						/>
					<path id="XMLID_365_" style="fill:none;stroke:#7289F7;stroke-miterlimit:10;" d="M90.15,264.349
						c4.096,7.926,8.193,15.851,12.289,23.776c1.524,2.949,3.05,5.902,4.354,8.963c7.094,16.66,9.393,55.468,8.709,80.875"/>
					<path id="XMLID_364_" style="fill:none;stroke:#7289F7;stroke-miterlimit:10;" d="M145.48,288.277
						c-3.7-0.389-7.323,1.427-10.24,3.831c-9.218,7.596-12.711,20.401-14.638,32.484c-2.331,14.619-3.152,29.5-2.443,44.301"/>
					<path id="XMLID_363_" style="fill:none;stroke:#7289F7;stroke-miterlimit:10;" d="M156.547,326.267
						c-7.923-1.901-16.47,1.48-22.264,7.424c-5.795,5.944-9.091,14.129-10.637,22.449c-1.546,8.32-1.476,16.862-1.4,25.336"/>
					<path id="XMLID_362_" style="fill:#93A5F9;" d="M101.913,321.094c-8.293-10.511-20.569-18.772-33.66-15.548
						c-5.404,1.331-10.554,3.689-15.657,6.072c11.716-2.513,15.771-2.247,24.1,1.946c8.256,4.156,12.83,14.608,18.122,22.453
						c1.655,2.453,12.36,15.892,13.087,7.612C108.571,336.028,106.469,326.869,101.913,321.094z"/>
					<path id="XMLID_357_" style="fill:none;stroke:#7289F7;stroke-miterlimit:10;" d="M63.804,306.875
						c9.24-1.802,19.255-0.903,26.347,5.929c7.091,6.833,14.254,22.425,17.247,32.317c2.993,9.891,4.383,20.279,5.759,30.603"/>
					<g id="XMLID_633_">
						<g id="XMLID_637_">
							<polygon id="XMLID_639_" style="fill:#E8EEFE;" points="132.668,407.834 99.656,407.834 93.296,366.24 139.028,366.24 
															"/>
							<polygon id="XMLID_638_" style="fill:#3D4FB7;" points="137.232,377.984 137.602,375.564 94.721,375.564 95.091,377.984 
															"/>
						</g>
						
							<line id="XMLID_636_" style="fill:none;stroke:#3D4FB7;stroke-miterlimit:10;" x1="101.751" y1="376.774" x2="91.714" y2="445.499"/>
						
							<line id="XMLID_635_" style="fill:none;stroke:#3D4FB7;stroke-miterlimit:10;" x1="130.358" y1="376.774" x2="140.395" y2="445.499"/>
						
							<line id="XMLID_634_" style="fill:none;stroke:#3D4FB7;stroke-miterlimit:10;" x1="116.055" y1="376.774" x2="116.055" y2="445.499"/>
					</g>
					<path id="XMLID_376_" style="fill:#CDDBFC;" d="M52.811,311.315c-5.028,3.579-7.777,8.569-3.485,14.921
						c3.119,4.617,9.863,4.969,14.735,2.498c4.871-2.471,8.417-7.003,12.16-11.087c3.742-4.084,15.494-6.644,15.494-6.644
						s-2.701-2.808-5.729-4.02c-1.483-0.594-2.983-1.151-4.527-1.538c-3.25-0.814-6.629-1.067-9.958-0.767
						C65.041,305.26,58.195,307.483,52.811,311.315z"/>
					<path id="XMLID_86_" style="fill:none;stroke:#7289F7;stroke-miterlimit:10;" d="M81.458,305.446
						c-11.843,1.118-21.818,6.757-25.62,13.711"/>
				</g>
			</g>
			<g>
				<g>
					<line style="fill:none;stroke:#3D4FB7;stroke-miterlimit:10;" x1="239.159" y1="294.054" x2="239.159" y2="445.499"/>
					<line style="fill:none;stroke:#3D4FB7;stroke-miterlimit:10;" x1="577.828" y1="294.054" x2="577.828" y2="445.499"/>
				</g>
				<rect x="227.767" y="289.768" style="fill:#F2F9FF;" width="361.453" height="8.572"/>
			</g>
		</g>
	</g>
</g>
</svg>
